<svg version="1.1" xmlns="http://www.w3.org/2000/svg" xmlns:xlink="http://www.w3.org/1999/xlink" width="20" height="34"><defs/><g><path fill="rgb(245,244,242)" stroke="none" paint-order="stroke fill markers" fill-rule="evenodd" d=" M 1.5920562744140625 3.4045351147651672 C 1.5920562744140625 2.584476351737976 1.984523057937622 2.004963755607605 2.7642650604248047 1.6662175059318542 C 3.549198627471924 1.3334161043167114 4.24750280380249 1.4667348265647888 4.863904237747192 2.0715680718421936 C 4.863904237747192 2.0715680718421936 18.32981538772583 15.56604290008545 18.32981538772583 15.56604290008545 C 18.717090606689453 15.950806677341461 18.90081000328064 16.411752581596375 18.880431175231934 16.95042186975479 C 18.880431175231934 17.46806401014328 18.696711778640747 17.914367973804474 18.32981538772583 18.283388912677765 C 18.32981538772583 18.283388912677765 4.863904237747192 31.82927566766739 4.863904237747192 31.82927566766739 C 4.24750280380249 32.449301302433014 3.549198627471924 32.58262002468109 2.7642650604248047 32.23407578468323 C 1.984523057937622 31.895879983901978 1.5920562744140625 31.301064908504486 1.5920562744140625 30.450070917606354 C 1.5920562744140625 30.450070917606354 1.5920562744140625 3.4045351147651672 1.5920562744140625 3.4045351147651672 C 1.5920562744140625 3.4045351147651672 1.5920562744140625 3.4045351147651672 1.5920562744140625 3.4045351147651672 Z"/></g></svg>